<svg xmlns="http://www.w3.org/2000/svg" x="0px" y="0px" width="100" height="100" viewBox="0 0 100 100">
<path fill="#c1e7e0" d="M86.212,57.157c1.135-2.155,1.785-4.605,1.785-7.21c0-6.621-4.159-12.257-10.001-14.478 c0-0.008,0.001-0.015,0.001-0.022c0-11.598-9.402-21-21-21c-9.784,0-17.981,6.701-20.313,15.757 c-1.476-0.485-3.048-0.757-4.687-0.757c-7.692,0-14.023,5.793-14.89,13.252c-5.204,1.1-9.11,5.716-9.11,11.248 c0,6.351,5.149,11.5,11.5,11.5c0.177,0,0.352-0.012,0.526-0.022c-0.004,0.175-0.026,0.346-0.026,0.522 c0,11.322,9.178,20.5,20.5,20.5c6.437,0,12.175-2.972,15.934-7.614c2.178,2.225,5.207,3.614,8.566,3.614 c4.65,0,8.674-2.65,10.666-6.518c1.052,0.334,2.171,0.518,3.334,0.518c6.075,0,11-4.925,11-11 C89.997,62.136,88.527,59.173,86.212,57.157z"></path><path fill="#f7f6e9" d="M22,82h-3.003c-1.933-0.053-3.5-1.62-3.5-3.553c0-1.781,1.335-3.234,3.055-3.455 c-0.028-0.179-0.055-0.358-0.055-0.545c0-1.933,1.567-3.5,3.5-3.5c1.032,0,1.95,0.455,2.59,1.165 c0.384-1.808,1.987-3.165,3.91-3.165c2.209,0,4,1.791,4,4c0,0.191-0.03,0.374-0.056,0.558c0.428-0.344,0.965-0.558,1.556-0.558 c1.228,0,2.245,0.887,2.455,2.055c0.179-0.028,0.358-0.055,0.545-0.055c1.933,0,3.5,1.567,3.5,3.5s-1.567,3.5-3.5,3.553H29l0,0 H22L22,82z"></path><circle cx="27.5" cy="81.5" r=".5" fill="#472b29"></circle><path fill="#472b29" d="M15.165,79.157C15.67,80.889,17.369,82,19.173,82h3.324c0.276,0,0.5-0.224,0.5-0.5 s-0.224-0.5-0.5-0.5h-3.395c-1.243,0-2.435-0.701-2.886-1.859c-0.755-1.939,0.536-3.861,2.399-4.1 c0.134-0.018,0.255-0.088,0.336-0.196s0.115-0.244,0.094-0.377c-0.024-0.153-0.049-0.308-0.049-0.468c0-1.654,1.346-3,3-3 c0.85,0,1.638,0.355,2.219,1c0.125,0.139,0.321,0.198,0.5,0.148c0.182-0.049,0.321-0.195,0.36-0.379 C25.417,70.165,26.856,69,28.497,69c1.93,0,3.5,1.57,3.5,3.5c0,0.143-0.021,0.28-0.041,0.418 c-0.029,0.203,0.063,0.438,0.242,0.54s0.396,0.118,0.556-0.01C33.118,73.155,33.548,73,33.997,73 c0.966,0,1.792,0.691,1.963,1.644c0.048,0.267,0.296,0.446,0.569,0.405C36.682,75.025,36.837,75,36.997,75 c1.97,0,3.503,1.908,2.846,3.974C39.447,80.218,38.206,81,36.901,81h-7.404c-0.276,0-0.5,0.224-0.5,0.5s0.224,0.5,0.5,0.5h7.343 c1.92,0,3.687-1.282,4.071-3.163C41.436,76.267,39.476,74,36.997,74c-0.059,0-0.116,0.002-0.174,0.006 C36.409,72.82,35.286,72,33.997,72c-0.349,0-0.689,0.061-1.011,0.18C32.821,69.847,30.87,68,28.497,68 c-1.831,0-3.466,1.127-4.153,2.774C23.663,70.276,22.842,70,21.997,70c-2.206,0-4,1.794-4,4c0,0.048,0.001,0.095,0.004,0.142 C15.899,74.682,14.497,76.869,15.165,79.157z"></path><path fill="#472b29" d="M24.497,81c0.159,0,0.841,0,1,0c0.276,0,0.5,0.224,0.5,0.5s-0.224,0.5-0.5,0.5 c-0.159,0-0.841,0-1,0c-0.276,0-0.5-0.224-0.5-0.5S24.221,81,24.497,81z"></path><path fill="#f7f6e9" d="M66,37h-6.003c-2.485-0.053-4.5-2.068-4.5-4.553c0-2.333,1.782-4.229,4.055-4.455 c-0.022-0.181-0.055-0.358-0.055-0.545c0-2.485,2.015-4.5,4.5-4.5c1.438,0,2.703,0.686,3.527,1.736 c0.14-2.636,2.302-4.736,4.973-4.736c2.761,0,5,2.239,5,5c0,0.446-0.077,0.87-0.187,1.282c0.642-0.777,1.6-1.282,2.687-1.282 c1.781,0,3.234,1.335,3.455,3.055c0.181-0.022,0.358-0.055,0.545-0.055c2.485,0,4.5,2.015,4.5,4.5s-2.015,4.5-4.5,4.553h-9.5H69v1 h-3V37z"></path><path fill="#472b29" d="M72.5,19c3.033,0,5.5,2.467,5.5,5.5c0,0.016,0,0.031,0,0.047C78.602,24.192,79.29,24,80,24 c1.831,0,3.411,1.261,3.858,3.005C83.905,27.002,83.952,27,84,27c3.099,0,5.549,2.834,4.893,6.047 C88.413,35.398,86.204,37,83.804,37H69.125c-0.276,0-0.5-0.224-0.5-0.5s0.224-0.5,0.5-0.5h14.718c1.92,0,3.687-1.282,4.071-3.163 C88.439,30.267,86.479,28,84,28c-0.117,0-0.23,0.017-0.343,0.032l-0.141,0.019c-0.021,0.003-0.041,0.004-0.062,0.004 c-0.246,0-0.462-0.185-0.495-0.437C82.768,26.125,81.496,25,80,25c-0.885,0-1.723,0.401-2.301,1.1 c-0.098,0.118-0.241,0.182-0.386,0.182c-0.078,0-0.156-0.018-0.228-0.056c-0.209-0.107-0.314-0.346-0.254-0.573 c0.16-0.6,0.202-1.069,0.147-1.549c-0.24-2.127-1.959-3.909-4.092-4.088c-2.551-0.215-4.725,1.728-4.859,4.246 c-0.011,0.208-0.15,0.387-0.349,0.45c-0.05,0.016-0.101,0.024-0.152,0.024c-0.15,0-0.296-0.069-0.392-0.192 C66.362,23.563,65.221,23,64,23c-2.206,0-4,1.794-4,4c0,0.117,0.017,0.23,0.032,0.343l0.019,0.141 c0.016,0.134-0.022,0.268-0.106,0.373s-0.207,0.172-0.34,0.185c-2.352,0.234-4.042,2.429-3.504,4.865 C56.509,34.76,58.275,36,60.173,36h5.952c0.276,0,0.5,0.224,0.5,0.5s-0.224,0.5-0.5,0.5h-5.938c-2.467,0-4.708-1.704-5.115-4.138 c-0.462-2.763,1.344-5.22,3.931-5.74C59.001,27.082,59,27.041,59,27c0-2.757,2.243-5,5-5c1.176,0,2.293,0.416,3.183,1.164 C67.781,20.76,69.945,19,72.5,19L72.5,19z"></path><path fill="#472b29" d="M73.997,26.447c1.403,0,2.609,0.999,2.913,2.341c0.367-0.222,0.786-0.341,1.212-0.341 c1.202,0,2.198,0.897,2.353,2.068c0.203-0.045,0.396-0.068,0.585-0.068c1.529,0,2.811,1.2,2.918,2.732 c0.009,0.138-0.094,0.257-0.232,0.267c-0.006,0-0.012,0-0.018,0c-0.13,0-0.24-0.101-0.249-0.232 c-0.089-1.271-1.151-2.268-2.419-2.268c-0.229,0-0.47,0.042-0.738,0.127c-0.022,0.007-0.045,0.01-0.067,0.01 c-0.055,0-0.11-0.02-0.156-0.054c-0.064-0.047-0.102-0.129-0.102-0.209c0-1.034-0.841-1.875-1.875-1.875 c-0.447,0-0.885,0.168-1.231,0.473c-0.047,0.041-0.106,0.063-0.165,0.063c-0.032,0-0.063-0.006-0.093-0.019 c-0.088-0.035-0.148-0.117-0.155-0.212c-0.102-1.292-1.191-2.305-2.479-2.305c-0.208,0-0.425,0.034-0.682,0.107 c-0.023,0.007-0.047,0.01-0.07,0.01c-0.109,0-0.207-0.073-0.239-0.182c-0.038-0.133,0.039-0.271,0.172-0.309 C73.48,26.487,73.741,26.447,73.997,26.447L73.997,26.447z"></path><path fill="#fff" d="M14.402,49H4.497c-0.276,0-0.5-0.224-0.5-0.5s0.224-0.5,0.5-0.5h9.905c0.276,0,0.5,0.224,0.5,0.5 S14.679,49,14.402,49z"></path><path fill="#fff" d="M17.497,49h-1c-0.276,0-0.5-0.224-0.5-0.5s0.224-0.5,0.5-0.5h1c0.276,0,0.5,0.224,0.5,0.5 S17.774,49,17.497,49z"></path><path fill="#fff" d="M22.488,51h-8.991c-0.276,0-0.5-0.224-0.5-0.5s0.224-0.5,0.5-0.5h8.991c0.276,0,0.5,0.224,0.5,0.5 S22.764,51,22.488,51z"></path><path fill="#fff" d="M11.497,51h-1c-0.276,0-0.5-0.224-0.5-0.5s0.224-0.5,0.5-0.5h1c0.276,0,0.5,0.224,0.5,0.5 S11.774,51,11.497,51z"></path><path fill="#fff" d="M8.497,51h-2c-0.276,0-0.5-0.224-0.5-0.5s0.224-0.5,0.5-0.5h2c0.276,0,0.5,0.224,0.5,0.5 S8.774,51,8.497,51z"></path><path fill="#fff" d="M14.497,53h-2c-0.276,0-0.5-0.224-0.5-0.5s0.224-0.5,0.5-0.5h2c0.276,0,0.5,0.224,0.5,0.5 S14.773,53,14.497,53z"></path><path fill="#fff" d="M17.497,44c-0.177,0-0.823,0-1,0c-0.276,0-0.5,0.224-0.5,0.5s0.224,0.5,0.5,0.5 c0.177,0,0.823,0,1,0c0.276,0,0.5-0.224,0.5-0.5S17.773,44,17.497,44z"></path><path fill="#fff" d="M17.497,46c-0.177,0-4.823,0-5,0c-0.276,0-0.5,0.224-0.5,0.5s0.224,0.5,0.5,0.5 c0.177,0,4.823,0,5,0c0.276,0,0.5-0.224,0.5-0.5S17.773,46,17.497,46z"></path><path fill="#fff" d="M22.497,48c-0.177,0-2.823,0-3,0c-0.276,0-0.5,0.224-0.5,0.5s0.224,0.5,0.5,0.5 c0.177,0,2.823,0,3,0c0.276,0,0.5-0.224,0.5-0.5S22.773,48,22.497,48z"></path><path fill="#fff" d="M88.497,66h-10c-0.276,0-0.5-0.224-0.5-0.5s0.224-0.5,0.5-0.5h10c0.276,0,0.5,0.224,0.5,0.5 S88.773,66,88.497,66z"></path><path fill="#fff" d="M92.497,66h-2c-0.276,0-0.5-0.224-0.5-0.5s0.224-0.5,0.5-0.5h2c0.276,0,0.5,0.224,0.5,0.5 S92.773,66,92.497,66z"></path><path fill="#fff" d="M97.497,68h-10c-0.276,0-0.5-0.224-0.5-0.5s0.224-0.5,0.5-0.5h10c0.276,0,0.5,0.224,0.5,0.5 S97.774,68,97.497,68z"></path><path fill="#fff" d="M85.497,68h-1c-0.276,0-0.5-0.224-0.5-0.5s0.224-0.5,0.5-0.5h1c0.276,0,0.5,0.224,0.5,0.5 S85.773,68,85.497,68z"></path><path fill="#fff" d="M82.372,68h-1.875c-0.276,0-0.5-0.224-0.5-0.5s0.224-0.5,0.5-0.5h1.875c0.276,0,0.5,0.224,0.5,0.5 S82.648,68,82.372,68z"></path><path fill="#fff" d="M91.497,64h-5c-0.276,0-0.5-0.224-0.5-0.5s0.224-0.5,0.5-0.5h5c0.276,0,0.5,0.224,0.5,0.5 S91.774,64,91.497,64z"></path><path fill="#fff" d="M88.497,70h-2c-0.276,0-0.5-0.224-0.5-0.5s0.224-0.5,0.5-0.5h2c0.276,0,0.5,0.224,0.5,0.5 S88.773,70,88.497,70z"></path><path fill="#2d80cf" d="M68.119,31.754c2.827,0,5.127,2.3,5.127,5.127v33.238c0,2.827-2.3,5.127-5.127,5.127H34.881 c-2.827,0-5.127-2.3-5.127-5.127V36.881c0-2.827,2.3-5.127,5.127-5.127L68.119,31.754"></path><polygon fill="#5058a0" points="52.246,72 55.432,75.186 68.512,75.186 72.916,72.191 72.916,36 70.22,32.4 60.693,32"></polygon><polyline fill="#f7b57f" points="41.246,32 41.246,48 52.246,72 63.246,48 63.246,32"></polyline><polygon fill="gray" points="48.997,64.356 52.246,71.681 55.523,64.5"></polygon><path fill="#dca425" d="M56.265,31.763l0.096,17.09c0,0,4.005,0.766,6.886-1.149V32L56.265,31.763z"></path><path fill="#f9e351" d="M41.246,31.5v16.205c0,0,3.633-3.512,7.183-2.307l0.317-0.154l0.003-13.361L41.246,31.5z"></path><polygon fill="#eb9522" points="48.443,45.244 52.26,64.5 55.746,64.364 62.943,48.279 58.036,49 55.954,48.83"></polygon><path fill="#472b29" d="M52.246,72.25c-0.098,0-0.187-0.057-0.228-0.146l-11-24c-0.015-0.033-0.022-0.068-0.022-0.104V32 c0-0.138,0.112-0.25,0.25-0.25s0.25,0.112,0.25,0.25v15.945L52.246,71.4l10.75-23.455V32c0-0.138,0.112-0.25,0.25-0.25 s0.25,0.112,0.25,0.25v16c0,0.036-0.008,0.071-0.022,0.104l-11,24C52.433,72.193,52.344,72.25,52.246,72.25z"></path><path fill="#472b29" d="M55.522,64.75h-6.525c-0.138,0-0.25-0.112-0.25-0.25s0.112-0.25,0.25-0.25h6.525 c0.138,0,0.25,0.112,0.25,0.25S55.66,64.75,55.522,64.75z"></path><path fill="#f7c959" d="M48.892,31.5l-0.144,14.194c0,0,3.471,0.862,4.931,2.011c1.46,1.149,2.566,0.91,2.566,0.91V31.5 H48.892z"></path><path fill="#472b29" d="M57.861,49.395c-1.852,0-3.02-0.657-4.665-1.584c-0.845-0.476-1.802-1.014-3.054-1.583 c-5.253-2.387-8.561,1.748-8.699,1.926c-0.086,0.108-0.244,0.127-0.351,0.044c-0.109-0.085-0.129-0.242-0.044-0.351 c0.037-0.046,3.683-4.627,9.301-2.074c1.271,0.578,2.238,1.122,3.092,1.603c2.783,1.565,4.053,2.278,9.726,0.388 c0.133-0.042,0.272,0.027,0.316,0.158s-0.027,0.272-0.158,0.316C60.868,49.057,59.189,49.395,57.861,49.395z"></path><path fill="#472b29" d="M52.497,64.606c-0.117,0-0.222-0.082-0.245-0.201l-1.875-9.429 c-0.027-0.136,0.061-0.268,0.196-0.294c0.145-0.023,0.268,0.062,0.294,0.196l1.875,9.429c0.027,0.136-0.061,0.268-0.196,0.294 C52.529,64.604,52.513,64.606,52.497,64.606z"></path><g><path fill="#472b29" d="M50.3,53.562c-0.117,0-0.222-0.082-0.245-0.201l-1.554-7.812L48.496,31.5 c0-0.138,0.112-0.25,0.25-0.25s0.25,0.112,0.25,0.25v14l1.549,7.763c0.027,0.136-0.061,0.268-0.196,0.294 C50.332,53.56,50.315,53.562,50.3,53.562z"></path></g><g><path fill="#472b29" d="M56.246,49.25c-0.138,0-0.25-0.112-0.25-0.25V32c0-0.138,0.112-0.25,0.25-0.25s0.25,0.112,0.25,0.25 v17C56.496,49.138,56.384,49.25,56.246,49.25z"></path></g><g><path fill="#472b29" d="M67.625,32.4c2.743,0,4.975,2.232,4.975,4.975v32.25c0,2.743-2.232,4.975-4.975,4.975h-32.25 c-2.743,0-4.975-2.232-4.975-4.975v-32.25c0-2.743,2.232-4.975,4.975-4.975H67.625 M67.625,31h-32.25 C31.854,31,29,33.854,29,37.375v32.25C29,73.146,31.854,76,35.375,76h32.25C71.146,76,74,73.146,74,69.625v-32.25 C74,33.854,71.146,31,67.625,31L67.625,31z"></path></g>
</svg>