<?xml version="1.0" encoding="UTF-8"?>
<svg xmlns="http://www.w3.org/2000/svg" width="160" height="160" viewBox="0 0 160 160" fill="none">
  <circle cx="80" cy="80" r="80" fill="white"></circle>
  <g clip-path="url(#clip0_226_1286)">
    <path d="M63.2956 72.854L41.8288 88.3648C40.9516 88.9986 40.9516 90.305 41.8288 90.9388L63.2956 106.45C63.8506 106.851 64.6003 106.851 65.1555 106.45L86.6223 90.9388C87.4995 90.305 87.4995 88.9986 86.6223 88.3648L65.1555 72.854C64.6003 72.4529 63.8506 72.4529 63.2956 72.854Z" fill="#E1E4E6"></path>
    <path d="M63.2956 63.1465L41.8288 78.6573C40.9516 79.2911 40.9516 80.5975 41.8288 81.2313L63.2956 96.742C63.8506 97.1431 64.6003 97.1431 65.1555 96.742L86.6223 81.2313C87.4995 80.5975 87.4995 79.2911 86.6223 78.6573L65.1555 63.1465C64.6003 62.7454 63.8506 62.7454 63.2956 63.1465Z" fill="#FFC700"></path>
    <path d="M63.2956 53.5503L41.8288 69.061C40.9516 69.6947 40.9516 71.0011 41.8288 71.6349L63.2956 87.1457C63.8506 87.5468 64.6003 87.5468 65.1555 87.1457L86.6223 71.6349C87.4995 71.0011 87.4995 69.6947 86.6223 69.061L65.1555 53.5503C64.6003 53.1492 63.8506 53.1492 63.2956 53.5503Z" fill="#7BBE1D"></path>
    <path d="M86.6219 69.061L65.1551 53.5503C64.6001 53.1492 63.8504 53.1492 63.2952 53.5503L62.0975 54.4157L80.089 67.4153C81.8748 68.7056 81.8748 71.3654 80.089 72.6557L61.665 85.9678L63.2952 87.1457C63.8502 87.5468 64.5999 87.5468 65.1551 87.1457L86.6219 71.6349C87.4991 71.0011 87.4991 69.6949 86.6219 69.061Z" fill="#60A600"></path>
    <path d="M104.268 63.0679H109.121V80.0555H104.268V63.0679Z" fill="#7BBE1D"></path>
    <path d="M113.975 67.9214H118.828V80.0554H113.975V67.9214Z" fill="#E1E4E6"></path>
    <path d="M94.5605 72.7749H99.414V80.0552H94.5605V72.7749Z" fill="#FFC700"></path>
    <path d="M87.3082 68.1112L81.9498 64.2396H99.4137C100.061 64.2396 100.586 63.7149 100.586 63.0677C100.586 62.4205 100.061 61.8958 99.4137 61.8958H78.7061L65.8413 52.6004C64.8746 51.902 63.5757 51.9021 62.6089 52.6004L60.1584 54.3711C59.6339 54.7502 59.5159 55.4827 59.8948 56.0074C60.2739 56.5319 61.0063 56.6499 61.5311 56.271L63.9815 54.5005C64.1272 54.3952 64.323 54.3953 64.4687 54.5005L85.9355 70.0112C86.1655 70.1775 86.166 70.5191 85.9355 70.6855L64.4687 86.1961C64.3229 86.3014 64.1273 86.3014 63.9816 86.1961L42.5146 70.6853C42.2846 70.5191 42.2842 70.1775 42.5146 70.0111L57.1102 59.4653C57.6348 59.0862 57.7528 58.3537 57.3738 57.829C56.9946 57.3044 56.2623 57.1863 55.7376 57.5654L41.142 68.1112C39.6196 69.2112 39.6191 71.4846 41.142 72.5851L44.6869 75.1463L41.142 77.7076C39.6196 78.8077 39.6191 81.081 41.142 82.1815L44.7634 84.7983L41.142 87.4149C39.6196 88.5149 39.6191 90.7882 41.142 91.8887L62.6089 107.399C63.5755 108.098 64.8745 108.098 65.8413 107.399L87.3082 91.8887C88.8305 90.7887 88.831 88.5154 87.3082 87.4149L83.6867 84.7981L87.3082 82.1813C88.8305 81.0813 88.831 78.808 87.3082 77.7075L83.7633 75.1462L87.3082 72.5849C88.8305 71.485 88.831 69.2117 87.3082 68.1112ZM85.9355 79.6074C86.1655 79.7736 86.166 80.1152 85.9355 80.2816L76.2622 87.271C75.7376 87.65 75.6197 88.3825 75.9986 88.9072C76.375 89.4282 77.1067 89.5523 77.6349 89.1708L81.6857 86.2439L85.9355 89.3146C86.1655 89.4809 86.166 89.8224 85.9355 89.9888L64.4687 105.499C64.3229 105.605 64.1271 105.605 63.9815 105.499L42.5146 89.9888C42.2846 89.8226 42.2842 89.481 42.5146 89.3146L46.7644 86.2439L62.6088 97.6923C63.5754 98.3907 64.8743 98.3906 65.8412 97.6923L73.2515 92.3379C73.776 91.9589 73.894 91.2263 73.5151 90.7017C73.1362 90.177 72.4035 90.0591 71.8788 90.4381L64.4685 95.7924C64.3227 95.8977 64.1269 95.8975 63.9813 95.7924L42.5146 80.2816C42.2846 80.1154 42.2842 79.7738 42.5146 79.6074L46.6878 76.5922L62.6088 88.0957C63.5755 88.7941 64.8745 88.7943 65.8413 88.0957L81.7623 76.5922L85.9355 79.6074Z" fill="#095931"></path>
    <path d="M104.268 81.2275H109.121C109.768 81.2275 110.293 80.7028 110.293 80.0556V63.0679C110.293 62.4207 109.768 61.896 109.121 61.896H104.268C103.62 61.896 103.096 62.4207 103.096 63.0679V70.9465C103.096 71.5937 103.62 72.1184 104.268 72.1184C104.915 72.1184 105.439 71.5937 105.439 70.9465V64.2398H107.949V78.8837H105.439V76.4153C105.439 75.7681 104.915 75.2434 104.268 75.2434C103.62 75.2434 103.096 75.7681 103.096 76.4153V80.0556C103.096 80.7028 103.62 81.2275 104.268 81.2275Z" fill="#095931"></path>
    <path d="M118.828 66.7495H113.975C113.327 66.7495 112.803 67.2742 112.803 67.9214V80.0554C112.803 80.7026 113.327 81.2273 113.975 81.2273H118.828C119.475 81.2273 120 80.7026 120 80.0554V67.9214C120 67.2742 119.476 66.7495 118.828 66.7495ZM117.656 78.8835H115.147V69.0933H117.656V78.8835Z" fill="#095931"></path>
    <path d="M99.4141 71.603H94.5606C93.9134 71.603 93.3887 72.1277 93.3887 72.7749V80.0554C93.3887 80.7026 93.9134 81.2273 94.5606 81.2273H99.4141C100.061 81.2273 100.586 80.7026 100.586 80.0554V72.7749C100.586 72.1277 100.061 71.603 99.4141 71.603ZM98.2422 78.8835H95.7325V73.9468H98.2422V78.8835Z" fill="#095931"></path>
    <path d="M118.829 83.7368H99.4141C98.7669 83.7368 98.2422 84.2615 98.2422 84.9087C98.2422 85.5559 98.7669 86.0806 99.4141 86.0806H118.829C119.476 86.0806 120 85.5559 120 84.9087C120 84.2615 119.476 83.7368 118.829 83.7368Z" fill="#095931"></path>
    <path d="M118.829 88.5908H94.5606C93.9134 88.5908 93.3887 89.1155 93.3887 89.7627C93.3887 90.4099 93.9134 90.9346 94.5606 90.9346H118.829C119.476 90.9346 120 90.4099 120 89.7627C120 89.1155 119.476 88.5908 118.829 88.5908Z" fill="#095931"></path>
    <path d="M111.548 93.4443H94.5606C93.9134 93.4443 93.3887 93.969 93.3887 94.6162C93.3887 95.2634 93.9134 95.7881 94.5606 95.7881H111.548C112.195 95.7881 112.72 95.2634 112.72 94.6162C112.72 93.969 112.195 93.4443 111.548 93.4443Z" fill="#095931"></path>
    <path d="M65.8412 71.9042C64.8744 71.2057 63.5755 71.2059 62.6088 71.9042L56.8626 76.0561C56.338 76.4352 56.22 77.1677 56.599 77.6924C56.9779 78.2169 57.7104 78.3349 58.2352 77.956L63.9814 73.8042C64.1272 73.6989 64.323 73.699 64.4686 73.8042L70.2148 77.9561C70.4223 78.106 70.6624 78.1782 70.9002 78.1782C71.2636 78.1782 71.6219 78.0096 71.851 77.6925C72.23 77.168 72.1121 76.4353 71.5874 76.0563L65.8412 71.9042Z" fill="#095931"></path>
    <path d="M78.5674 72.8381C78.9464 72.3135 78.8285 71.5809 78.3038 71.2018L65.8407 62.1966C64.874 61.4982 63.575 61.4983 62.6083 62.1966L50.1448 71.202C49.6202 71.581 49.5023 72.3135 49.8812 72.8382C50.1102 73.1553 50.4685 73.3239 50.832 73.3239C51.0698 73.3239 51.3098 73.2517 51.5173 73.1018L63.9808 64.0968C64.1266 63.9915 64.3224 63.9917 64.468 64.0968L76.9311 73.102C77.4559 73.4808 78.1884 73.3626 78.5674 72.8381Z" fill="#095931"></path>
  </g>
  <defs>
    <clipPath id="clip0_226_1286">
      <rect width="80" height="80" fill="white" transform="translate(40 40)"></rect>
    </clipPath>
  </defs>
</svg>
